<svg width="140" height="140" viewBox="0 0 140 140" fill="none" xmlns="http://www.w3.org/2000/svg">
<g clip-path="url(#clip0)">
<rect opacity="0.1" width="140" height="140" rx="39.2683" fill="#4A3AFF"/>
<g filter="url(#filter0_d)">
<path d="M47.165 31.7429C51.9086 31.7468 56.5265 30.2174 60.3299 27.3828L66.827 22.5406C69.2518 20.8466 72.4803 20.8467 74.9051 22.5406L81.8206 27.5429C85.5488 30.2396 90.0286 31.6995 94.6298 31.7172L100.136 31.7384C105.579 31.7384 109.992 36.1397 109.992 41.5691V41.5691C109.992 46.5208 112.187 51.2179 115.984 54.3954L116.229 54.6005C116.708 55.0007 116.984 55.5916 116.984 56.2144V111.832C116.984 115.711 113.833 118.854 109.944 118.854H32.0244C28.1366 118.854 24.9844 115.711 24.9844 111.832L24.9878 56.2143C24.9878 55.5915 25.2642 55.0007 25.742 54.6005L25.9825 54.3993C29.7813 51.2207 31.9762 46.5222 31.9762 41.5691V41.5691C31.9762 36.1397 36.3886 31.7384 41.8322 31.7384L47.165 31.7429Z" fill="#FF0000" fill-opacity="0.01"/>
</g>
<mask id="mask0" mask-type="alpha" maskUnits="userSpaceOnUse" x="24" y="18" width="93" height="101">
<path d="M53.0652 31.7384L66.9451 20.1247C69.37 18.4307 72.5984 18.4308 75.0233 20.1247L88.9042 31.7384H100.136C105.579 31.7384 109.992 36.1397 109.992 41.569V49.3819L116.229 54.6004C116.708 55.0007 116.984 55.5916 116.984 56.2144V111.832C116.984 115.71 113.833 118.854 109.944 118.854H32.0244C28.1366 118.854 24.9844 115.71 24.9844 111.832L24.9878 56.2142C24.9878 55.5915 25.2642 55.0007 25.742 54.6005L31.9762 49.3841V41.569C31.9762 36.1397 36.3886 31.7384 41.8322 31.7384H53.0652Z" fill="#EBE9FF"/>
</mask>
<g mask="url(#mask0)">
<path d="M64.7045 23.0691L28.1201 52.6954C26.1389 54.2998 24.9878 56.7129 24.9877 59.2623L24.9846 111.832C24.9846 115.71 28.1365 118.854 32.0246 118.854H109.945C113.833 118.854 116.984 115.71 116.984 111.832V59.2724C116.984 56.7172 115.828 54.2993 113.84 52.695L77.0996 23.0574C73.4817 20.1389 68.3169 20.1438 64.7045 23.0691Z" fill="#AFA8FF"/>
<path d="M100.133 31.7385C105.578 31.7385 109.993 36.1526 109.993 41.5977L109.993 117.446C109.993 118.224 109.362 118.854 108.584 118.854L33.385 118.854C32.6071 118.854 31.9766 118.224 31.9766 117.446L31.9766 41.5977C31.9766 36.1526 36.3907 31.7385 41.8358 31.7385L100.133 31.7385Z" fill="#F9F9FF"/>
<rect x="42.6022" y="65.5502" width="44.4804" height="6.40678" rx="3.20339" fill="#BCB6FF"/>
<rect x="42.6021" y="43.7573" width="44.0453" height="6.40678" rx="3.20339" fill="#BCB6FF"/>
<rect x="42.6022" y="54.6537" width="33.4012" height="6.40678" rx="3.20339" fill="#BCB6FF"/>
<path d="M60.4155 86.8367L24.5635 57.9785L24.8123 115.978L60.4155 86.8367Z" fill="#8277FF"/>
<path d="M81.7369 87.3451L118.056 58.3953L117.552 113.558L81.7369 87.3451Z" fill="#8277FF"/>
<path d="M9.8207 117.065L63.0553 79.8746C67.9002 76.4898 74.343 76.4898 79.188 79.8746L143.429 124.755C144.558 125.544 144 127.318 142.622 127.318L13.0472 127.318C7.53625 127.318 5.30301 120.222 9.8207 117.065Z" fill="#4A3AFF"/>
</g>
</g>
<defs>
<filter id="filter0_d" x="-4.09433" y="4.16502" width="150.157" height="155.742" filterUnits="userSpaceOnUse" color-interpolation-filters="sRGB">
<feFlood flood-opacity="0" result="BackgroundImageFix"/>
<feColorMatrix in="SourceAlpha" type="matrix" values="0 0 0 0 0 0 0 0 0 0 0 0 0 0 0 0 0 0 127 0"/>
<feOffset dy="11.9736"/>
<feGaussianBlur stdDeviation="14.5394"/>
<feColorMatrix type="matrix" values="0 0 0 0 0.290196 0 0 0 0 0.227451 0 0 0 0 1 0 0 0 0.15 0"/>
<feBlend mode="normal" in2="BackgroundImageFix" result="effect1_dropShadow"/>
<feBlend mode="normal" in="SourceGraphic" in2="effect1_dropShadow" result="shape"/>
</filter>
<clipPath id="clip0">
<rect width="140" height="140" fill="white"/>
</clipPath>
</defs>
</svg>
