<svg width="16" height="17" viewBox="0 0 16 17" fill="none" xmlns="http://www.w3.org/2000/svg">
<path d="M7.28366 6.13034V2.90767C7.28366 2.31434 7.76433 1.83301 8.35766 1.83301C8.951 1.83301 9.43233 2.31434 9.43233 2.90767V6.81434L10.3183 3.63767C10.3558 3.50357 10.4194 3.37819 10.5054 3.26874C10.5915 3.15929 10.6983 3.06792 10.8198 2.9999C10.9413 2.93188 11.075 2.88853 11.2133 2.87236C11.3516 2.85619 11.4918 2.86751 11.6257 2.90567C11.7603 2.94402 11.886 3.00875 11.9954 3.09611C12.1048 3.18348 12.1958 3.29172 12.2629 3.41456C12.3301 3.53739 12.3722 3.67236 12.3868 3.81161C12.4013 3.95086 12.388 4.09161 12.3477 4.22567L10.897 9.06034M7.81299 8.67434C7.94961 8.29586 7.93335 7.87903 7.76766 7.51234L7.05233 5.92567C6.99516 5.79894 6.91353 5.68474 6.81212 5.58962C6.71071 5.49451 6.59152 5.42036 6.46138 5.37143C6.33124 5.32249 6.19272 5.29974 6.05377 5.30447C5.91482 5.30921 5.77817 5.34133 5.65166 5.39901C5.52316 5.45764 5.40772 5.54145 5.31218 5.64548C5.21664 5.74952 5.14295 5.87167 5.09546 6.00469C5.04797 6.13771 5.02765 6.27891 5.0357 6.41993C5.04375 6.56095 5.08001 6.69892 5.14233 6.82568L5.23233 7.00968M9.23766 12.2843L9.56566 11.6283C9.57339 11.613 9.57764 11.5961 9.57811 11.5789C9.57859 11.5617 9.57527 11.5446 9.5684 11.5288C9.56153 11.513 9.55127 11.499 9.53836 11.4876C9.52544 11.4762 9.51018 11.4678 9.49366 11.463L7.127 10.767C6.89725 10.699 6.69851 10.5529 6.56519 10.3538C6.43188 10.1547 6.37237 9.91532 6.39699 9.67701C6.42514 9.40894 6.55778 9.16275 6.76617 8.99179C6.97456 8.82084 7.24193 8.73888 7.51033 8.76367L10.7023 9.06101C10.7023 9.06101 13.2423 9.45167 12.3623 11.991C11.4837 14.531 11.191 15.4097 9.23766 15.4097H5.917C5.16578 15.4095 4.44538 15.111 3.91419 14.5798C3.383 14.0486 3.0845 13.3282 3.08433 12.577L2.98633 7.10767M5.07966 6.66634L5.78299 8.22701C5.8917 8.48536 5.89516 8.77596 5.79265 9.03684C5.69014 9.29771 5.48976 9.50821 5.23425 9.62344C4.97874 9.73867 4.68832 9.74952 4.42493 9.65366C4.16153 9.55781 3.94601 9.36284 3.82433 9.11034L3.11966 7.54967C3.06166 7.42098 3.02958 7.28212 3.02524 7.14103C3.0209 6.99993 3.0444 6.85936 3.09439 6.72735C3.19535 6.46073 3.39808 6.24515 3.65799 6.12801C3.91791 6.01087 4.21371 6.00178 4.48032 6.10274C4.74693 6.20369 4.96252 6.40643 5.07966 6.66634Z" stroke="url(#paint0_linear_90_434)" stroke-linecap="round"/>
<defs>
<linearGradient id="paint0_linear_90_434" x1="2.98633" y1="1.83301" x2="15.9273" y2="7.09004" gradientUnits="userSpaceOnUse">
<stop stop-color="#8A84E2"/>
<stop offset="1" stop-color="#69FADD"/>
</linearGradient>
</defs>
</svg>
