<svg width="44" height="44" viewBox="0 0 44 44" fill="none" xmlns="http://www.w3.org/2000/svg">
<path d="M25.7996 33.7502C22.2996 32.4502 18.6996 32.2502 15.3996 33.1502C13.0996 33.7502 10.8996 34.9502 8.89963 36.4502L7.4996 37.6502L7.09961 38.0502L7.9996 38.8502C8.0996 38.8502 8.09962 38.9502 8.19962 39.0502C8.39962 39.2502 8.59963 39.3502 8.89963 39.5502L9.4996 39.9502L10.0996 39.4502C10.1996 39.3502 10.3996 39.1502 10.5996 39.0502C12.3996 37.5502 14.3996 36.5502 16.4996 36.0502C19.1996 35.3502 22.0996 35.4502 24.9996 36.5502C27.3996 37.4502 32.2996 38.5502 38.1996 36.0502L38.3996 35.9502L38.6996 35.6502C38.6996 35.5502 38.7996 35.5502 38.8996 35.4502C39.3996 34.8502 39.8996 34.2502 40.2996 33.5502L42.2996 30.4502L39.0996 32.2502C34.3996 34.8502 30.0996 35.3502 25.7996 33.7502Z" fill="url(#paint0_linear_90_449)"/>
<path d="M12.1 22.95C14.8 22.25 17.7 22.35 20.6 23.45C23.8 24.65 32 26.35 41.2 18.05L42.7 16.55L42.8 16.45L43.2 16.05L43 15.55C42.9 15.15 42.7 14.65 42.5 14.15L42 12.75L41 13.75C40.9 13.95 40.7 14.05 40.5 14.25C36.1 18.75 29.3 23.35 21.5 20.55C18 19.25 14.4 19.05 11.1 19.95C7.90001 20.85 5.1 22.55 2.5 24.95V24.85L1 26.45C1 26.55 0.900018 26.55 0.800018 26.65L0.5 26.95L0.600006 27.35C0.700006 27.85 0.9 28.35 1 28.85L1.60001 30.45L2.60001 29.15C2.70001 28.95 2.9 28.85 3 28.65C5.1 26.75 8.00001 24.05 12.1 22.95Z" fill="url(#paint1_linear_90_449)"/>
<path d="M2.40002 21.15C4.70002 18.75 7.30001 17.25 10.1 16.45C12.8 15.75 15.7 15.85 18.6 16.95C27.6 20.25 35.4 14.85 38.8 11.95L40.1 10.65L40.6 10.25L40.2 9.65002C39.9 9.35002 39.7 8.95002 39.4 8.55002L38.8 7.75L38.1 8.45001C38 8.55001 37.8 8.75001 37.7 8.85001C33.5 12.85 27 16.95 19.6 14.15C16.1 12.85 12.5 12.65 9.20001 13.55C7.10001 14.15 5.10001 15.15 3.10001 16.45L1 18.15C0.8 18.35 0.7 18.45 0.5 18.65L0.300018 18.85V19.15C0.200018 19.85 0.200006 20.55 0.100006 21.15L0 23.65L1.70001 21.85C1.90001 21.65 2.10002 21.35 2.40002 21.15Z" fill="url(#paint2_linear_90_449)"/>
<path d="M28.7004 40.5499L28.5004 41.1499L28.7004 40.5499C28.4004 40.4499 28.2004 40.3499 27.9004 40.2499C24.4004 38.9499 20.8004 38.7499 17.5004 39.6499C16.8004 39.8499 16.1004 40.0499 15.4004 40.3499L13.0004 41.4499L12.4004 41.7499L14.4004 42.4499C15.0004 42.6499 15.6004 42.8499 16.2004 43.0499L16.5004 43.1499L16.8004 43.0499C17.1004 42.9499 17.4004 42.7499 17.7004 42.7499C17.9004 42.7499 18.1004 42.6499 18.3004 42.5499C20.7004 41.9499 23.3004 41.9499 26.1004 42.8499C26.4004 42.9499 26.6004 43.0499 26.9004 43.1499L27.4004 43.3499L27.7004 43.2499C28.4004 43.0499 29.2004 42.8499 29.8004 42.5499L32.6004 41.5499L29.7004 40.8499C29.4004 40.7499 29.0004 40.6499 28.7004 40.5499Z" fill="url(#paint3_linear_90_449)"/>
<path d="M44.0008 19.8506L42.5008 21.3506C42.3008 21.5506 42.1008 21.7506 41.9008 21.9506C37.8008 25.8506 31.2008 30.0506 23.8008 27.2506C20.3008 25.9506 16.7008 25.7506 13.4008 26.6506C10.3008 27.5506 7.50076 29.1506 5.00076 31.5506L3.70078 32.9506L3.30078 33.4506L3.70078 34.0506C4.00078 34.4506 4.20079 34.7506 4.40079 35.1506L5.00076 36.0506L5.70078 35.1506C5.80078 35.0506 6.00077 34.8506 6.10077 34.7506C8.50077 32.1506 11.1008 30.5506 14.1008 29.7506C16.8008 29.0506 19.7008 29.1506 22.6008 30.2506C25.1008 31.1506 27.7008 31.4506 30.3008 31.1506C34.9008 30.6506 39.5008 28.0506 42.9008 25.1506C43.1008 24.9506 43.3008 24.8506 43.5008 24.6506L43.8008 24.3506V24.0506C43.8008 23.4506 43.9008 22.7506 43.9008 22.1506L44.0008 19.8506Z" fill="url(#paint4_linear_90_449)"/>
<path d="M5.99921 10.6508L5.69922 10.0508L5.99921 10.6508C6.59921 10.3508 7.29923 10.1508 7.89923 9.95078C10.5992 9.25078 13.4992 9.35078 16.3992 10.4508C18.2992 11.1508 20.1992 11.4508 22.2992 11.4508C26.4992 11.4508 30.6992 9.95078 34.5992 7.05078L36.0992 5.85077L36.5992 5.45078L35.6992 4.75076C35.3992 4.45076 34.9992 4.15078 34.5992 3.95078L33.9992 3.55078L33.4992 3.95078C33.2992 4.05078 33.1992 4.25077 32.9992 4.35077C27.6992 8.35077 22.3992 9.45078 17.3992 7.55078C13.7992 6.25078 10.1992 5.95078 6.59921 7.05078C6.29921 7.15078 5.99921 7.25077 5.59921 7.35077L5.39923 7.45078L5.09921 7.75076C5.09921 7.85076 4.99923 7.85078 4.89923 7.95078C4.49923 8.55078 3.99921 9.05079 3.59921 9.65079L1.69922 12.5508L4.79922 10.9508C5.29922 10.9508 5.69921 10.7508 5.99921 10.6508Z" fill="url(#paint5_linear_90_449)"/>
<path d="M14.2 3.85037L14.5 3.95038C15.8 4.45038 17.8 4.95038 20.3 4.95038C22.9 4.95038 25.4 4.35037 27.9 3.35037L31 1.85037L28.9 1.15039C28.3 0.950391 27.7 0.750391 27 0.650391H26.7L26.4 0.750366C26.1 0.850366 25.8 1.05039 25.5 1.15039C22.5 2.25039 19.5 2.45039 16.6 1.65039C16.3 1.55039 16 1.45037 15.7 1.35037L15.4 1.25037L15.1 1.35037C14.5 1.55037 13.9 1.75038 13.3 2.05038L11 3.05038L13.4 3.75037C13.6 3.65037 13.9 3.75037 14.2 3.85037Z" fill="url(#paint6_linear_90_449)"/>
<defs>
<linearGradient id="paint0_linear_90_449" x1="7.09961" y1="30.4502" x2="17.0679" y2="51.7556" gradientUnits="userSpaceOnUse">
<stop stop-color="#8A84E2"/>
<stop offset="1" stop-color="#69FADD"/>
</linearGradient>
<linearGradient id="paint1_linear_90_449" x1="0.5" y1="12.75" x2="23.4293" y2="44.6576" gradientUnits="userSpaceOnUse">
<stop stop-color="#8A84E2"/>
<stop offset="1" stop-color="#69FADD"/>
</linearGradient>
<linearGradient id="paint2_linear_90_449" x1="0" y1="7.75" x2="20.1988" y2="37.501" gradientUnits="userSpaceOnUse">
<stop stop-color="#8A84E2"/>
<stop offset="1" stop-color="#69FADD"/>
</linearGradient>
<linearGradient id="paint3_linear_90_449" x1="12.4004" y1="39.0977" x2="16.1439" y2="49.3555" gradientUnits="userSpaceOnUse">
<stop stop-color="#8A84E2"/>
<stop offset="1" stop-color="#69FADD"/>
</linearGradient>
<linearGradient id="paint4_linear_90_449" x1="3.30078" y1="19.8506" x2="24.0019" y2="49.8506" gradientUnits="userSpaceOnUse">
<stop stop-color="#8A84E2"/>
<stop offset="1" stop-color="#69FADD"/>
</linearGradient>
<linearGradient id="paint5_linear_90_449" x1="1.69922" y1="3.55078" x2="10.866" y2="24.0552" gradientUnits="userSpaceOnUse">
<stop stop-color="#8A84E2"/>
<stop offset="1" stop-color="#69FADD"/>
</linearGradient>
<linearGradient id="paint6_linear_90_449" x1="11" y1="0.650391" x2="14.8468" y2="10.9711" gradientUnits="userSpaceOnUse">
<stop stop-color="#8A84E2"/>
<stop offset="1" stop-color="#69FADD"/>
</linearGradient>
</defs>
</svg>
